<?xml version="1.0" encoding="iso-8859-1"?>
<!-- Generator: Adobe Illustrator 19.0.0, SVG Export Plug-In . SVG Version: 6.00 Build 0)  -->
<svg version="1.1" id="Capa_1" xmlns="http://www.w3.org/2000/svg" xmlns:xlink="http://www.w3.org/1999/xlink" x="0px" y="0px"
	 viewBox="0 0 511.999 511.999" style="enable-background:new 0 0 511.999 511.999;" xml:space="preserve">
<path style="fill:#FAC239;" d="M306.272,442.506l-19.799-32.479h-46.849l32.492,53.301c-2.38,7.885-1.527,16.709,3.097,24.295
	c8.625,14.148,27.086,18.626,41.234,10.001s18.626-27.086,10.001-41.234C321.823,448.804,314.371,444.003,306.272,442.506z"/>
<path style="fill:#9B4E34;" d="M256,60.003L68.82,201.447l73.044,208.58h228.271l73.043-208.58L256,60.003z"/>
<circle style="fill:#DAE1E5;" cx="255.997" cy="294.019" r="75.005"/>
<path style="fill:#696970;" d="M276.001,139.009c0-11.047-8.955-20.001-20.001-20.001c-11.047,0-20.001,8.955-20.001,20.001v40.003
	h40.003V139.009z"/>
<polygon style="fill:#EE3C32;" points="477.014,179.011 256,10 34.985,179.011 34.985,227.015 256,60.003 477.014,227.015 "/>
<g>
	<path style="fill:#231E1E;" d="M256,209.013c-46.872,0-85.006,38.134-85.006,85.006s38.134,85.006,85.006,85.006
		s85.006-38.134,85.006-85.006S302.872,209.013,256,209.013z M256,359.023c-35.843,0-65.004-29.161-65.004-65.004
		s29.161-65.004,65.004-65.004s65.004,29.161,65.004,65.004S291.843,359.023,256,359.023z"/>
	<path style="fill:#231E1E;" d="M235.998,189.012h40.003c5.522,0,10.001-4.478,10.001-10.001v-40.003
		c0-16.543-13.459-30.002-30.002-30.002s-30.002,13.459-30.002,30.002v40.003C225.998,184.534,230.475,189.012,235.998,189.012z
		 M245.999,139.009c0-5.514,4.486-10.001,10.001-10.001c5.514,0,10.001,4.486,10.001,10.001v30.002h-20.001V139.009z"/>
	<path style="fill:#231E1E;" d="M278.001,284.018H266v-20.001c0-5.522-4.478-10.001-10.001-10.001
		c-5.522,0-10.001,4.478-10.001,10.001v30.002c0,5.522,4.478,10.001,10.001,10.001h22.001c5.522,0,10.001-4.478,10.001-10.001
		S283.524,284.018,278.001,284.018z"/>
	<path style="fill:#231E1E;" d="M483.089,171.068L262.074,2.057c-3.586-2.742-8.564-2.742-12.149,0L28.911,171.068
		c-2.475,1.892-3.926,4.829-3.926,7.944v48.003c0,3.794,2.147,7.262,5.544,8.953c3.397,1.69,7.456,1.313,10.486-0.974l22.899-17.303
		l68.512,195.641c1.404,4.011,5.189,6.695,9.439,6.695h92.143l27.438,45.01c-1.684,9.538,0.141,19.444,5.229,27.791
		c7.526,12.349,20.718,19.171,34.221,19.171c18.246,0,34.524-12.888,38.81-30.565c2.519-10.384,0.843-21.127-4.718-30.25
		c-5.088-8.347-13.058-14.507-22.308-17.38l-8.397-13.776h65.854c4.249,0,8.035-2.685,9.439-6.695l68.512-195.641
		c0,0,22.864,17.277,22.899,17.303c6.48,4.897,16.03,0.133,16.03-7.979v-48.003C487.015,175.897,485.564,172.959,483.089,171.068z
		 M304.455,452.342c5.595,1.033,10.499,4.406,13.454,9.255c2.78,4.561,3.618,9.933,2.359,15.124
		c-4.119,16.981-27.451,20.568-36.515,5.698c-2.955-4.847-3.707-10.752-2.063-16.199c0.822-2.723,0.445-5.666-1.034-8.096
		l-23.223-38.097h23.424l16.876,27.685C299.213,450.14,301.658,451.824,304.455,452.342z M363.041,400.026H148.959l-66.19-189.013
		h70.225c5.522,0,10.001-4.478,10.001-10.001s-4.478-10.001-10.001-10.001H99.217L256,72.538l156.781,118.474h-53.775
		c-5.522,0-10.001,4.478-10.001,10.001s4.478,10.001,10.001,10.001h70.225L363.041,400.026z M467.014,206.922L262.029,52.024
		c-0.223-0.168-0.451-0.326-0.684-0.474c-1.63-1.032-3.487-1.548-5.345-1.548c-1.858,0-3.715,0.516-5.345,1.548
		c-0.233,0.147-0.461,0.305-0.684,0.474L44.986,206.922v-22.97L256,22.589l211.014,161.364V206.922z"/>
</g>
<g>
</g>
<g>
</g>
<g>
</g>
<g>
</g>
<g>
</g>
<g>
</g>
<g>
</g>
<g>
</g>
<g>
</g>
<g>
</g>
<g>
</g>
<g>
</g>
<g>
</g>
<g>
</g>
<g>
</g>
</svg>
